<?xml version="1.0" encoding="UTF-8"?>
<svg xmlns="http://www.w3.org/2000/svg" version="1.1" viewBox="0 0 192 192">
  <defs>
    <linearGradient x1="80" y1="0" x2="0" y2="0" id="Gradient0" gradientUnits="userSpaceOnUse">
      <stop style="stop-color:#919D87;stop-opacity:1" offset="0" />
      <stop style="stop-color:#49594C;stop-opacity:1" offset="1" />
    </linearGradient>
  </defs>
  
  <path style="fill:url(#Gradient0);stroke:none" d="m 22,30 48,0 a 6 6 0 0 1 6,6 a 6 6 0 0 0 6,6 l 88,0 a 12 12 0 0 1 12,12  l 0,96 a 12,12 0 0 1 -12,12 l -148,0 a 12,12 0 0 1 -12,-12 l 0,-108 a 12,12 0 0 1 12,-12 z"/>  
  <path style="fill:#708975;stroke:none" d="m 22,68 48,0 a 6 6 0 0 0 6,-6 a 6 6 0 0 1 6,-6 l 88,0 a 12 12 0 0 1 12,12  l 0,82 a 12,12 0 0 1 -12,12 l -148,0 a 12,12 0 0 1 -12,-12 l 0,-70 a 12,12 0 0 1 12,-12 z"/>  
  <g transform="scale(0.4) translate(142 190)">
    <path style="fill:#919191;stroke:#B1B1B1;stroke-width:3;" d="m 42,10 108,0 a 12 12 0 0 1 12,12  l 0,148 a 12,12 0 0 1 -12,12 l -108,0 a 12,12 0 0 1 -12,-12 l 0,-148 a 12,12 0 0 1 12,-12 z"/>
    <path style="fill:#C0C0C0;stroke:#636363;stroke-width:3;" d="m 52,20 88,0 a 12 12 0 0 1 12,12  l 0,44 a 12,12 0 0 1 -12,12 l -88,0 a 12,12 0 0 1 -12,-12 l 0,-44 a 12,12 0 0 1 12,-12 z"/>
    <path style="fill:#C0C0C0;stroke:#636363;stroke-width:3;" d="m 52,103 88,0 a 12 12 0 0 1 12,12  l 0,44 a 12,12 0 0 1 -12,12 l -88,0 a 12,12 0 0 1 -12,-12 l 0,-44 a 12,12 0 0 1 12,-12 z"/>
    <path style="fill:none;stroke:#636363;stroke-width:3;" d="m 90,42 12,0 m -12,83 12,0"/>
  </g>
</svg>
