<?xml version="1.0" encoding="UTF-8"?>
<svg xmlns="http://www.w3.org/2000/svg" version="1.1" viewBox="0 0 192 192">
  <defs>
    <linearGradient x1="200" y1="0" x2="0" y2="0" id="Gradient0" gradientUnits="userSpaceOnUse">
      <stop style="stop-color:#FFE250;stop-opacity:1" offset="0" />
      <stop style="stop-color:#776E15;stop-opacity:1" offset="1" />
    </linearGradient>
  </defs>
  <path style="fill:url(#Gradient0);stroke:none" d="m 22,30 48,0 a 6 6 0 0 1 6,6 a 6 6 0 0 0 6,6 l 88,0 a 12 12 0 0 1 12,12  l 0,96 a 12,12 0 0 1 -12,12 l -148,0 a 12,12 0 0 1 -12,-12 l 0,-108 a 12,12 0 0 1 12,-12 z"/>  
  <path style="fill:#F0C52A;stroke:none" d="m 22,68 48,0 a 6 6 0 0 0 6,-6 a 6 6 0 0 1 6,-6 l 88,0 a 12 12 0 0 1 12,12  l 0,82 a 12,12 0 0 1 -12,12 l -148,0 a 12,12 0 0 1 -12,-12 l 0,-70 a 12,12 0 0 1 12,-12 z"/>  
  <path style="fill:#745252;stroke:none;" d="m 96,116 a 18,18 1 1 1 0.1,0 z m 35.9,30 -72,0 0,-9 a 12,12 0 0 1 8,-10 a 90,90 0 0 1 56,0 a 12,12 0 0 1 8,10 z"/>
</svg>
