<?xml version="1.0" encoding="UTF-8"?>
<svg xmlns="http://www.w3.org/2000/svg" version="1.1" viewBox="0 0 192 192">
  <defs>
    <linearGradient x1="200" y1="0" x2="0" y2="0" id="Gradient0" gradientUnits="userSpaceOnUse">
      <stop style="stop-color:#FFE250;stop-opacity:1" offset="0" />
      <stop style="stop-color:#776E15;stop-opacity:1" offset="1" />
    </linearGradient>
  </defs>

  <path style="fill:url(#Gradient0);stroke:none" d="m 22,30 48,0 a 6 6 0 0 1 6,6 a 6 6 0 0 0 6,6 l 88,0 a 12 12 0 0 1 12,12  l 0,96 a 12,12 0 0 1 -12,12 l -148,0 a 12,12 0 0 1 -12,-12 l 0,-108 a 12,12 0 0 1 12,-12 z"/>  
  <path style="fill:#F0C52A;stroke:none" d="m 22,68 48,0 a 6 6 0 0 0 6,-6 a 6 6 0 0 1 6,-6 l 88,0 a 12 12 0 0 1 12,12  l 0,82 a 12,12 0 0 1 -12,12 l -148,0 a 12,12 0 0 1 -12,-12 l 0,-70 a 12,12 0 0 1 12,-12 z"/>  
  <g transform="scale(0.4) translate(240,30)">
    <path style="fill:#745252;stroke:#454545;stroke-width:3;" d="m 96,10 25,50.2 57,10.2 -40,39.4 8,56 -50.3,-25 -50.3,25 8,-56 -40,-39.4 57,-10.2 25,-50.2 z"/>
  </g>
</svg>
