<?xml version="1.0" encoding="UTF-8"?>
<svg xmlns="http://www.w3.org/2000/svg" version="1.1" viewBox="0 0 192 192">
  <defs>
    <linearGradient x1="200" y1="0" x2="0" y2="0" id="Gradient0" gradientUnits="userSpaceOnUse">
      <stop style="stop-color:#FFE250;stop-opacity:1" offset="0" />
      <stop style="stop-color:#776E15;stop-opacity:1" offset="1" />
    </linearGradient>
  </defs>

  <path style="fill:url(#Gradient0);stroke:none" d="m 22,30 48,0 a 6 6 0 0 1 6,6 a 6 6 0 0 0 6,6 l 88,0 a 12 12 0 0 1 12,12  l 0,96 a 12,12 0 0 1 -12,12 l -148,0 a 12,12 0 0 1 -12,-12 l 0,-108 a 12,12 0 0 1 12,-12 z"/>  
  <path style="fill:#F0C52A;stroke:none" d="m 22,68 48,0 a 6 6 0 0 0 6,-6 a 6 6 0 0 1 6,-6 l 88,0 a 12 12 0 0 1 12,12  l 0,82 a 12,12 0 0 1 -12,12 l -148,0 a 12,12 0 0 1 -12,-12 l 0,-70 a 12,12 0 0 1 12,-12 z"/>  
  <g transform="scale(0.65) translate(96,122)">
    <path style="fill:#745252" d="M 10,3.1 10,97 90,97 90,3.1 z m 4,5.9 6,0 0,5 -6,0 z m 66,0 6,0 0,5 -6,0 z m -66,11 6,0 0,5 -6,0 z m 66,0 6,0 0,5 -6,0 z m -66,11 6,0 0,5 -6,0 z m 66,0 6,0 0,5 -6,0 z m -66,11 6,0 0,5 -6,0 z m 66,0 6,0 0,5 -6,0 z m -66,11 6,0 0,5 -6,0 z m 66,0 6,0 0,5 -6,0 z m -66,11 6,0 0,5 -6,0 z m 66,0 6,0 0,5 -6,0 z m -66,11 6,0 0,5 -6,0 z m 66,0 6,0 0,5 -6,0 z m -66,11 6,0 0,5 -6,0 z m 66,0 6,0 0,5 -6,0 z m -57,-81 54,0 0,26 -54,0 z m 0,29 54,0 0,28 -54,0 z m 0,31 54,0 0,30 -54,0 z"/>
  </g>
</svg>
