<?xml version="1.0" encoding="UTF-8"?>
<svg xmlns="http://www.w3.org/2000/svg" version="1.1" viewBox="0 0 192 192">
  <path style="fill:#9D9D87;stroke:none" d="m 42,30 108,0 a 12 12 0 0 1 12,12  l 0,108 a 12,12 0 0 1 -12,12 l -108,0 a 12,12 0 0 1 -12,-12 l 0,-108 a 12,12 0 0 1 12,-12 z"/>  
  <path style="fill:#454545;" d="m 88,30 0,32 -4,0 0,24 24,0 0,-24 -4,0 0,-32 -6,0 0,32,-4,0 0,-32 z m 0,44 16,0 0,6 -16,0 z"/>
  <text style="font: bold 52px mono;fill:#454545;" x="52" y="130">tar</text>
</svg>
