<?xml version="1.0" encoding="UTF-8"?>
<svg xmlns="http://www.w3.org/2000/svg" version="1.1" viewBox="0 0 192 192">
  <defs>
    <linearGradient x1="200" y1="0" x2="0" y2="0" id="Gradient0" gradientUnits="userSpaceOnUse">
      <stop style="stop-color:#406A7D;stop-opacity:1" offset="0" />
      <stop style="stop-color:#12326F;stop-opacity:1" offset="1" />
    </linearGradient>
  </defs>

  <path style="fill:url(#Gradient0);stroke:none" d="m 22,30 48,0 a 6 6 0 0 1 6,6 a 6 6 0 0 0 6,6 l 88,0 a 12 12 0 0 1 12,12  l 0,96 a 12,12 0 0 1 -12,12 l -148,0 a 12,12 0 0 1 -12,-12 l 0,-108 a 12,12 0 0 1 12,-12 z"/>  
  <path style="fill:#03A9F4;stroke:none" d="m 22,68 48,0 a 6 6 0 0 0 6,-6 a 6 6 0 0 1 6,-6 l 88,0 a 12 12 0 0 1 12,12  l 0,82 a 12,12 0 0 1 -12,12 l -148,0 a 12,12 0 0 1 -12,-12 l 0,-70 a 12,12 0 0 1 12,-12 z"/>  
  <g transform="rotate(45 100 100)">
    <path style="fill:#BCBCBC;" d="m 62,94 a 32 32 0 0 0 32,-32 l 32,0 a 32 32 0 0 0 32,32 l 0,32 a 32 32 0 0 0 -32,32 l-32,0 a 32 32 0 0 0 -32,-32 z m 48,-8 a 24 24 1 1 0 0.1,0 z"/>
  </g>
</svg>
