<?xml version="1.0" encoding="UTF-8"?>
<svg xmlns="http://www.w3.org/2000/svg" version="1.1" viewBox="0 0 192 192">
  <path style="fill:#EDEDED;" d="m 32,20 128,0 a 12 12 0 0 1 12,12  l 0,128 a 12,12 0 0 1 -12,12 l -128,0 a 12,12 0 0 1 -12,-12 l 0,-128 a 12,12 0 0 1 12,-12 z"/>
  <path style="fill:#795548" d="m 50,76 92,0 a 32,52 0 0 1 -32,52 l -28,0 a 32,52 0 0 1 -32,-52 z"/>
  <path style="fill:#795548" d="m 50,130 92,0 0,3 a 32,6 0 0 0 -32,6 l -28,0 a 32,6 0 0 0 -32,-6 z"/>
  <path style="fill:#795548" d="m 144,76 a 32,52 0 0 1 -4,26  q 30,-26 4,-26 z m 4,4 q 12,0 -4,16 z "/>
</svg>
