<?xml version="1.0" encoding="UTF-8"?>
<svg xmlns="http://www.w3.org/2000/svg" version="1.1" viewBox="0 0 192 192">
  <g transform="scale(0.75)">
    <path style="fill:#EDEDED;" d="m 32,20 128,0 a 12 12 0 0 1 12,12  l 0,128 a 12,12 0 0 1 -12,12 l -128,0 a 12,12 0 0 1 -12,-12 l 0,-128 a 12,12 0 0 1 12,-12 z"/>
    <path style="fill:#EDEDED;stroke:#607D8B;stroke-width:3;" d="m 94,74 48,0 m -96,24 96,0 m -96,24 96,0 m -96,24 96,0 m -92,-96 24,0 0,24 -24,0 z"/>
    </g>
  <g transform="translate(48,48) scale(0.75)">
    <path style="fill:#EDEDED;" d="m 32,20 128,0 a 12 12 0 0 1 12,12  l 0,128 a 12,12 0 0 1 -12,12 l -128,0 a 12,12 0 0 1 -12,-12 l 0,-128 a 12,12 0 0 1 12,-12 z"/>
    <path style="fill:#EDEDED;stroke:#607D8B;stroke-width:3;" d="m 94,74 48,0 m -96,24 96,0 m -96,24 96,0 m -96,24 96,0 m -92,-96 24,0 0,24 -24,0 z"/>
  </g>
</svg>
