<?xml version="1.0" encoding="UTF-8"?>
<svg xmlns="http://www.w3.org/2000/svg" version="1.1" viewBox="0 0 192 192">
  <path style="fill:#263238;" d="m 42,30 108,0 a 12 12 0 0 1 12,12  l 0,108 a 12,12 0 0 1 -12,12 l -108,0 a 12,12 0 0 1 -12,-12 l 0,-108 a 12,12 0 0 1 12,-12 z"/>
  <path style="fill:none;stroke:#D5D5D5;stroke-width:10px;" d="m 82,90 30 0"/>
  <path style="fill:#D5D5D5;" d="m 72,88 a 12 12 0 1 1 -24 0 a 100 100 0 0 0 -5 -46 a 5 5 0 1 1 10 0 a 4 4 0 1 1 7 2 a 4 4 0 1 1 7 2 a 4 4 0 1 1 7 2 a 3 3 0 1 1 5 3 z"/>
</svg>
