<?xml version="1.0" encoding="UTF-8"?>
<svg xmlns="http://www.w3.org/2000/svg" version="1.1" viewBox="0 0 192 192">
  <defs>
    <filter id="filter1" x="0" y="0">
      <feGaussianBlur in="SourceGraphic" stdDeviation="1.2" />
    </filter>
    <linearGradient x1="80" y1="0" x2="0" y2="0" id="Gradient0" gradientUnits="userSpaceOnUse">
      <stop style="stop-color:#8383D2;stop-opacity:1" offset="0" />
      <stop style="stop-color:#1A1A97;stop-opacity:1" offset="1" />
    </linearGradient>
    <linearGradient x1="100" y1="0" x2="0" y2="0" id="Gradient1" gradientUnits="userSpaceOnUse">
      <stop style="stop-color:#ECD92D;stop-opacity:1" offset="0" />
      <stop style="stop-color:#635908;stop-opacity:1" offset="1" />
    </linearGradient>
  </defs>
  <path style="fill:url(#Gradient0);" filter="url(#filter1)" d="m 96 180 a 76 84 0 1 1 0.1 0 z"/>
  <path style="fill:#ECD92D;fill-opacity:0.25;" d="m 70 96 a 50 30 0 1 0 30 0 a 50 50 0 0 1 0 -50 l -30 0 a 50 50 0 0 1 0 50 z" />
  <g transform="rotate(7)">
    <path style="fill:#D71818;fill-opacity:0.15;" d="m 65  106 4 10 -4 10 -4 -10 z"/>
  </g>
  <path style="fill:url(#Gradient1);" d="m 80 106 a 50 30 0 1 0 30 0 a 50 50 0 0 1 0 -50 l -30 0 a 50 50 0 0 1 0 50 z" />
  <g transform="rotate(7)">
    <path style="fill:#D71818;" d="m 75  116 4 10 -4 10 -4 -10 z"/>
    <path style="fill:#D55757;" d="m 75  116 4 10 -4 10 z"/>
  </g>
  <path style="fill:#D22E2E;" d="m 96  133 5 10 -5 10 -5 -10 z"/>
  <path style="fill:#D48383;" d="m 96  133 5 10 -5 10 z"/>
  <g transform="rotate(-7)">
    <path style="fill:#D34B4B;" d="m 116 139 4 10 -4 10 -4 -10 z"/>
    <path style="fill:#D48383;" d="m 116 139 4 10 -4 10 z"/>
  </g>
  <path style="fill:#BCBCBC;" d="m 96 53 a 10 10 0 0 1 -3 -12 a 12 12 0 0 0 2 -11 a 10 10 0 0 1 3 10  a 9 9 0 0 0 -4 13 z"/>
  <path style="fill:#BCBCBC;fill-opacity:0.6;" d="m 96 53 a 20 22 0 0 1 -5 -18 a 14 14 0 0 0 1 -16 a 17 17 0 0 1 3 17  a 10 10 0 0 0 -0 18 z"/>
  <path style="fill:#BCBCBC;fill-opacity:0.2;" d="m 86 43 a 10 10 0 0 1 -3 -12 a 12 12 0 0 0 2 -11 a 10 10 0 0 1 3 10  a 9 9 0 0 0 -4 13 z"/>
  <path style="fill:#BCBCBC;fill-opacity:0.1;" d="m 86 43 a 20 22 0 0 1 -5 -18 a 14 14 0 0 0 1 -16 a 17 17 0 0 1 3 17  a 10 10 0 0 0 -0 18 z"/>
</svg>
