<?xml version="1.0" encoding="UTF-8"?>
<svg xmlns="http://www.w3.org/2000/svg" version="1.1" viewBox="0 0 192 192">
    <defs>
     <linearGradient id="LG1"  x1="20%" y1="80%" x2="20%" y2="0%" spreadMethod="reflect">
        <stop style="stop-color:rgb(100,100,100);stop-opacity:1;" offset="0%"/>
        <stop style="stop-color:rgb(200,200,200);stop-opacity:1;" offset="100%"/>
      </linearGradient>
      <radialGradient id="RG1" cx="25%" cy="80%" fx="50%" fy="50%" r="45%">
        <stop style="stop-color:rgb(30,30,30);stop-opacity:1;" offset="0%"/>
        <stop style="stop-color:rgb(0,0,0);stop-opacity:1;" offset="100%"/>
      </radialGradient>
   </defs>
  <path style="stroke:#000000;stroke-width:6;fill:url(#RG1)" d="m 11 82 69 -69 a 20 20 0 0 1 30 0 l 70 70 a 14 14 0 0 1 -3 22 a 90 90 0 0 1 -40 12
                                 a 6 6 0 0 0 -4 10 a 90 90 0 0 1 20 12 a 10 10 0 0 1 4 13 a 50 40 0 0 0 -30 10
                                 a 8 8 0 0 0 -4 10 a 10 10 0 0 1 -6 10 a 50 40 0 0 1 -40 3  a 30 30 0 0 1 -12 -14
                                 a 18 18 0 0 0 -14 -7 a 6 6 0 0 1 -3 -10 a 6 6 0 0 0 -3 -10 a 90 90 0 0 1 -30 -20
                                 a 8 10 0 0 1 3 -14 a 90 90 0 0 1 14 -10 a 5 5 0 0 0 1 -8 a 90 90 0 0 1 -25 -3
                                 a 4 4 0 0 1 3 -6.25 z"/> 
  <path style="stroke:none;fill:url(#LG1);" d="m 45 53 35 -35 a 20 20 0 0 1 30 0 l 25 25 a 6 6 0 0 1 0 10 
                                 l -10 -8 -5 12 -10 -4 -18 8 -6 -19 -6 16 -31 0 a 3 3 0 0 1 -3 -4 z"/> 
</svg>
