<?xml version="1.0" encoding="UTF-8"?>
<svg xmlns="http://www.w3.org/2000/svg" version="1.1" viewBox="0 0 192 192">
  <g transform="scale(0.8) translate(24,0)">
    <path style="fill:#3E2723;stroke:none" d="m 22,30 148,0 a 12 12 0 0 1 12,12  l 0,108 a 12,12 0 0 1 -12,12 l -148,0 a 12,12 0 0 1 -12,-12 l 0,-108 a 12,12 0 0 1 12,-12 z"/>
    <path style="fill:#00BCD4;stroke:none" d="m 12,42  a 10 10 0 0 1 10,-10 l 148,0 a 10 10 0 0 1 10,10 l 0,104 -53,-80 -50,68 -38,-42 -27,32 z"/>
    <circle style="fill:#FFEF62;stroke:none" cx="50" cy="56" r="10"/>
  </g>
  <path style="fill:#FFEB3B;stroke:#BF3603;stroke-width:3;" d="m 64,144 64,0 -32,32 z"/>
</svg>
