<?xml version="1.0" encoding="UTF-8"?>
<svg xmlns="http://www.w3.org/2000/svg" version="1.1" viewBox="0 0 192 192">
  <path style="fill:#EDEDED;stroke:#03A9F4;stroke-width:8;" d="m 32,20 128,0 a 12 12 0 0 1 12,12  l 0,128 a 12,12 0 0 1 -12,12 l -128,0 a 12,12 0 0 1 -12,-12 l 0,-128 a 12,12 0 0 1 12,-12 z"/>
  <path style="fill:#03A9F4;" d="m 32,20 100,0 40,40 0,100 a 12,12 0 0 1 -12,12 l -128,0 a 12,12 0 0 1 -12,-12 l 0,-128 a 12,12 0 0 1 12,-12 z"/>
  <g transform="scale(1.92) translate(0,-5)">
    <path style="fill:none;stroke:#EDEDED;stroke-width:3;" d="M 20,40 40,40 M 20,50 40,50 M 20,60 80,60 M 20,70 80,70 M 20,80 65,80"/>
    <path style="fill:#EDEDED;fill-opacity:0.3;" d="M 46,30 80,30 80,52 46,52 z"/>
  </g>
</svg>
