<?xml version="1.0" encoding="UTF-8"?>
<svg xmlns="http://www.w3.org/2000/svg" version="1.1" viewBox="0 0 192 192">
  <path style="fill:#EDEDED;stroke:#FFC107;stroke-width:8;" d="m 32,20 128,0 a 12 12 0 0 1 12,12  l 0,128 a 12,12 0 0 1 -12,12 l -128,0 a 12,12 0 0 1 -12,-12 l 0,-128 a 12,12 0 0 1 12,-12 z"/>
  <path style="fill:#FFC107;" d="m 32,20 100,0 40,40 0,100 a 12,12 0 0 1 -12,12 l -128,0 a 12,12 0 0 1 -12,-12 l 0,-128 a 12,12 0 0 1 12,-12 z"/>
  <g transform="scale(1.92) translate(0,-10)"> 
    <circle cx="45" cy="53" r="20" style="fill:#FF9800;fill-opacity:0.5;stroke:#FF9800;stroke-width:3;" />
    <path d="M 25,82 65,82 45,46 z" style="fill:#FFEB3B;fill-opacity:0.5;stroke:#FFEB3B;stroke-width:3;" />
    <rect x="50" y="45" width="30" height="30" style="fill:#FF5107;fill-opacity:0.5;stroke:#FF5107;stroke-width:3;" />
  </g>
</svg>
