<?xml version="1.0" encoding="UTF-8"?>
<svg xmlns="http://www.w3.org/2000/svg" version="1.1" viewBox="0 0 192 192">
  <path style="fill:#EDEDED;stroke:#424242;stroke-width:8;" d="m 32,20 128,0 a 12 12 0 0 1 12,12  l 0,128 a 12,12 0 0 1 -12,12 l -128,0 a 12,12 0 0 1 -12,-12 l 0,-128 a 12,12 0 0 1 12,-12 z"/>
  <path style="fill:#EDEDED;stroke:#424242;stroke-width:14;" d="m 38,26 88,0 40,40 0,88 a 12,12 0 0 1 -12,12 l -116,0 a 12,12 0 0 1 -12,-12 l 0,-116 a 12,12 0 0 1 12,-12 z"/>
  <path style="fill:none;stroke:#0000FF;stroke-width:24;" d="m 50,154 0,-40"/>
  <path style="fill:none;stroke:#FF0000;stroke-width:24;" d="m 80,154 0,-70"/>
  <path style="fill:none;stroke:#FFFF00;stroke-width:24;" d="m 110,154 0,-30"/>
  <path style="fill:none;stroke:#00FF00;stroke-width:24;" d="m 140,154 0,-40"/>
</svg>
