<?xml version="1.0" encoding="UTF-8"?>
<svg xmlns="http://www.w3.org/2000/svg" version="1.1" viewBox="0 0 192 192">
  <path style="fill:#EDEDED;stroke:#9C27B0;stroke-width:8;" d="m 32,20 128,0 a 12 12 0 0 1 12,12  l 0,128 a 12,12 0 0 1 -12,12 l -128,0 a 12,12 0 0 1 -12,-12 l 0,-128 a 12,12 0 0 1 12,-12 z"/>
  <path style="fill:#9C27B0;" d="m 32,20 100,0 40,40 0,100 a 12,12 0 0 1 -12,12 l -128,0 a 12,12 0 0 1 -12,-12 l 0,-128 a 12,12 0 0 1 12,-12 z"/>
  <g transform="scale(1.92) translate(0,-10)">
    <path d="m 27,79 a 23 10 0 1 0 46,0 l 0,-13 m -46,13 l 0,-13 a 23 10 0 1 0 46,0 l 0,-13 m -46,13 l 0,-13 a 23 10 0 1 0 46,0 l 0,-13 m -46,13 l 0,-13 a 23 10 0 1 0 0,-0.1 z" style="fill:none;stroke:#EDEDED;stroke-width:3;"/>
  </g>
</svg>
