<?xml version="1.0" encoding="UTF-8"?>
<svg xmlns="http://www.w3.org/2000/svg" version="1.1" viewBox="0 0 192 192">
  <path style="fill:#EDEDED;stroke:#D16024;stroke-width:8;" d="m 32,20 128,0 a 12 12 0 0 1 12,12  l 0,128 a 12,12 0 0 1 -12,12 l -128,0 a 12,12 0 0 1 -12,-12 l 0,-128 a 12,12 0 0 1 12,-12 z"/>
  <path style="fill:#D16024;stroke:#D16024;stroke-width:8;" d="m 32,20 100,0 40,40 0,100 a 12,12 0 0 1 -12,12 l -128,0 a 12,12 0 0 1 -12,-12 l 0,-128 a 12,12 0 0 1 12,-12 z"/>
  <g transform="scale(1.92) translate(0,-5)"> 
    <path d="M 25,30 75,30 75,70 25,70 z M 35,45 65,45 M 35,56 65,56" style="fill:#94776D;fill-opacity:0.3;stroke:#FF946F;stroke-width:3;" />
    <path d="M 35,85 50,73, 65,85" style="fill:none;stroke:#FF946F;stroke-width:6;" />
  </g>
</svg>
