<?xml version="1.0" encoding="UTF-8"?>
<svg xmlns="http://www.w3.org/2000/svg" version="1.1" viewBox="0 0 192 192">
  <path style="fill:#EDEDED;stroke:#4CAF50;stroke-width:8;" d="m 32,20 128,0 a 12 12 0 0 1 12,12  l 0,128 a 12,12 0 0 1 -12,12 l -128,0 a 12,12 0 0 1 -12,-12 l 0,-128 a 12,12 0 0 1 12,-12 z"/>
  <path style="fill:#4CAF50;" d="m 32,20 100,0 40,40 0,100 a 12,12 0 0 1 -12,12 l -128,0 a 12,12 0 0 1 -12,-12 l 0,-128 a 12,12 0 0 1 12,-12"/>
  <g transform="scale(1.92) translate(0,-10)"> 
    <path d="M 25,40 75,40 75,80 25,80 z" style="fill:#98AF99;stroke:#224A20;stroke-width:3;" />
    <path d="M 25,50 75,50 M 25,57 75,57 M 25,64 75,64 M 25,71 75,71 M 42,40 42,80 M 61,40 61,80" style="fill:none;stroke:#224A20;stroke-width:1;" />
  </g>
</svg>
