<?xml version="1.0" encoding="UTF-8"?>
<svg xmlns="http://www.w3.org/2000/svg" version="1.1" viewBox="0 0 192 192">
  <path style="fill:#EDEDED;stroke:#C4034C;stroke-width:8;" d="m 32,20 128,0 a 12 12 0 0 1 12,12  l 0,128 a 12,12 0 0 1 -12,12 l -128,0 a 12,12 0 0 1 -12,-12 l 0,-128 a 12,12 0 0 1 12,-12 z"/>
  <path style="fill:#C4034C;" d="m 32,20 100,0 40,40 0,100 a 12,12 0 0 1 -12,12 l -128,0 a 12,12 0 0 1 -12,-12 l 0,-128 a 12,12 0 0 1 12,-12 z"/>
  <g transform="scale(1.92)">
    <path style="fill:none;stroke:#EDEDED;stroke-width:5;" d="M 25,60 30,60 35,70 40,40 70,40"/>
    <path style="fill:none;stroke:#ED9F9F;stroke-width:7;" d="M 45,50 65,70 M 65,50 45,70"/>
  </g>
</svg>
