<?xml version="1.0" encoding="UTF-8"?>
<svg xmlns="http://www.w3.org/2000/svg" version="1.1" viewBox="0 0 192 192">
  <g transform="scale(1.8) translate(3,3)">
    <path style="fill:#4E2457" d="M 10,10 10,90 90,90 90,10 z m 4,5.9 6,0 0,5 -6,0 z m 66,0 6,0 0,5 -6,0 z m -66,11 6,0 0,5 -6,0 z m 66,0 6,0 0,5 -6,0 z m -66,11 6,0 0,5 -6,0 z m 66,0 6,0 0,5 -6,0 z m -66,11 6,0 0,5 -6,0 z m 66,0 6,0 0,5 -6,0 z m -66,11 6,0 0,5 -6,0 z m 66,0 6,0 0,5 -6,0 z m -66,11 6,0 0,5 -6,0 z m 66,0 6,0 0,5 -6,0 z m -66,11 6,0 0,5 -6,0 z m 66,0 6,0 0,5 -6,0 z "/>
    <path style="fill:#FFFFFF" d="m 50,25 a 25 25 0 1 0 0.1,0 z m -8,13 20,11 -20,11 z "/>
  </g>
</svg>
