<?xml version="1.0" encoding="UTF-8"?>
<svg xmlns="http://www.w3.org/2000/svg" version="1.1" viewBox="0 0 192 192">
  <path style="fill:#EDEDED;" d="m 32,20 128,0 a 12 12 0 0 1 12,12  l 0,128 a 12,12 0 0 1 -12,12 l -128,0 a 12,12 0 0 1 -12,-12 l 0,-128 a 12,12 0 0 1 12,-12 z"/>
  <path style="fill:none;stroke:#4C5A81;stroke-width:5;stroke-linecap:butt;" d="m 78 36 c -16,0 -11,20 -12,50 a 10,10 0 0 1 -10,10 a 10,10 0 0 1 10,10 c 0,30 -1,50 12,50" />
  <path style="fill:none;stroke:#4C5A81;stroke-width:5;stroke-linecap:butt;" d="m 114 36 c 16,0 11,20 12,50 a 10,10 0 0 0 10,10 a 10,10 0 0 0 -10,10 c 0,30 1,50 -12,50" />
</svg>
