<?xml version="1.0" encoding="UTF-8"?>
<svg xmlns="http://www.w3.org/2000/svg" version="1.1" viewBox="0 0 192 192">
  <path style="fill:#EDEDED;" d="m 32,20 128,0 a 12 12 0 0 1 12,12  l 0,128 a 12,12 0 0 1 -12,12 l -128,0 a 12,12 0 0 1 -12,-12 l 0,-128 a 12,12 0 0 1 12,-12 z"/>
  <g transform="scale(1.92)">
    <path style="fill:none;stroke:#3F51B5;stroke-width:5;" d="m 24,50 0,35 m 18,-22 a 9,10.5 0 1 1 0,-0.1 z m 25,0 a 9,10.5 0 1 1 0,-0.1 z m 8,-25 0,30 a 5,5 0 0 0 5,5 m -10,-23 10,0" />
  </g>
</svg>
