<?xml version="1.0" encoding="UTF-8"?>
<svg xmlns="http://www.w3.org/2000/svg" version="1.1" viewBox="0 0 192 192">
  <path style="fill:#796168;" d="m 96 180 a 76 84 0 1 1 0.1 0 z"/>
  <path style="fill:#cccccc44;stroke:#cccccc;stroke-width:1" d="m 48 48 a 48 6 0 1 1 96 0 m -96 0 46 46 0 42 -20 12 a 24 3 1 0 0 44 0 l -20 -12 0 -42 46 -46 a 48 6 0 1 1 -96 0 z" />
  <path style="fill:#fffc0044;" d="m 72 72 23 23 23 -23 a 23 3 0 0 1 -46 0 z a 23 3 0 0 1 46 0"/>
  <path style="fill:#5bcf4add;" d="m 90 48 26 18 -26 18 z"/>
</svg>
